<?xml version="1.0" encoding="UTF-8"?>
<svg width="220px" height="46px" viewBox="0 0 220 46" version="1.1" xmlns="http://www.w3.org/2000/svg" xmlns:xlink="http://www.w3.org/1999/xlink">
    <!-- Generator: Sketch 52.3 (67297) - http://www.bohemiancoding.com/sketch -->
    <title>Group 2@2x</title>
    <desc>Created with Sketch.</desc>
    <g id="首页" stroke="none" stroke-width="1" fill="none" fill-rule="evenodd">
        <g id="未登录" transform="translate(-1002.000000, -334.000000)">
            <g id="Group-4" transform="translate(912.000000, 174.000000)">
                <g id="Group-2" transform="translate(90.000000, 160.000000)">
                    <rect id="Rectangle" fill="#D52B2A" x="0" y="0" width="220" height="46" rx="2"></rect>
                    <rect id="Rectangle" stroke="#D52B2A" fill="#FFFFFF" x="0.5" y="0.5" width="45.0000013" height="45" rx="2"></rect>
                    <text id="使用微博账号" font-family="PingFangSC-Regular, PingFang SC" font-size="18" font-weight="normal" fill="#FFFFFF">
                        <tspan x="78" y="30">使用微博账号</tspan>
                    </text>
                    <g id="微博" transform="translate(3.066667, 6.133333)" fill-rule="nonzero">
                        <path d="M2.98835134,21.6655466 C2.98835134,26.2881524 8.93631987,29.8835125 16.4359324,29.8835125 C23.9355449,29.8835125 29.8835134,26.2881524 29.8835134,21.6655466 C29.8835134,17.0429407 23.9355449,13.4475806 16.4359324,13.4475806 C8.93631987,13.4475806 2.98835134,17.0429407 2.98835134,21.6655466" id="Shape" fill="#FFFFFF"></path>
                        <path d="M30.7373281,15.636576 C30.1980767,15.3714177 29.6588253,15.3714177 29.928451,14.5759429 C30.4677024,12.9849933 30.7373281,11.6592019 29.928451,10.5985688 C28.5803226,8.74246089 24.805563,8.74246089 20.7611777,10.5985688 C20.7611777,10.5985688 19.4130493,11.1288854 19.682675,10.0682523 C20.7611777,7.94698607 20.4915521,6.09087815 19.682675,5.29540333 C17.5256695,3.17413714 11.3242788,5.29540333 6.20139075,10.5985688 C2.42663116,14.3107846 0,18.553317 0,22.0003746 C0,28.6293314 8.62802192,32.8718638 17.2560438,32.8718638 C28.5803226,32.8718638 35.8602161,26.5080652 35.8602161,21.470058 C35.8602161,18.0230005 33.1639592,16.1668926 30.7373281,15.636576 Z M17.2560438,30.2202811 C10.5154017,31.0157559 4.58363664,27.8338566 4.04438527,23.3261659 C3.5051339,19.0836336 8.62802192,14.8411012 15.6382897,14.3107846 C22.3789318,13.5153098 28.3106969,16.6972091 28.8499483,21.2048998 C29.119574,25.4474321 23.996686,29.4248062 17.2560438,30.2202811 Z" id="Shape" fill="#D52B2A"></path>
                        <path d="M37.4917431,3.44528612 C34.7438439,0.522013048 30.621995,-0.54099534 26.774936,0.256260951 C25.9505662,0.522013048 25.4009864,1.31926934 25.4009864,2.11652563 C25.9505662,2.91378192 26.774936,3.44528612 27.5993058,3.17953402 C30.3472051,2.64802982 33.0951043,3.44528612 35.0186338,5.57130289 C36.9421633,7.69731967 37.4917431,10.6205927 36.6673734,13.0123616 C36.3925834,13.8096179 36.9421633,14.6068742 37.7665331,14.8726263 C38.5909028,15.1383784 39.4152726,14.6068742 39.6900625,13.8096179 C41.0640122,10.6205927 40.2396424,6.63431128 37.4917431,3.44528612" id="Shape" fill="#E89214"></path>
                        <path d="M33.101219,7.6141345 C31.7520762,6.30418891 29.8632763,5.78021067 27.9744763,6.04219979 C27.1649906,6.30418891 26.8951621,6.82816715 26.8951621,7.6141345 C27.1649906,8.40010186 27.7046478,8.66209098 28.5141334,8.66209098 C29.3236191,8.40010186 30.4029334,8.66209098 30.9425905,9.44805834 C31.4822476,10.2340257 31.7520762,11.0199931 31.4822476,11.8059604 C31.2124191,12.5919278 31.7520762,13.115906 32.2917333,13.3778951 C33.101219,13.6398842 33.6408762,13.115906 33.9107047,12.5919278 C34.7201904,11.0199931 34.4503618,9.18606922 33.101219,7.6141345" id="Shape" fill="#E89214"></path>
                        <path d="M18.0604389,18.1440357 C14.7454649,17.3101494 11.1542431,18.9779221 9.49675614,22.0355053 C8.11551697,25.0930886 9.49675614,28.4286339 12.8117301,29.5404824 C16.4029519,30.6523308 20.5466694,28.9845582 21.9279086,25.6490128 C23.3091477,22.3134674 21.6516608,19.2558842 18.0604389,18.1440357 Z M15.5742084,25.9269749 C15.0217128,27.0388234 13.3642258,27.5947476 12.2592345,27.0388234 C11.1542431,26.4828991 10.8779953,25.3710507 11.430491,24.2592022 C11.9829866,23.1473538 13.3642258,22.8693917 14.4692171,23.1473538 C15.8504563,23.703278 16.1267041,24.8151265 15.5742084,25.9269749 Z M17.7841911,23.1473538 C17.5079433,23.703278 16.9554476,23.703278 16.6791998,23.703278 C16.1267041,23.4253159 16.1267041,23.1473538 16.4029519,22.5914296 C16.6791998,22.3134674 17.2316954,22.0355053 17.5079433,22.0355053 C17.7841911,22.3134674 18.0604389,22.5914296 17.7841911,23.1473538 Z" id="Shape" fill="#040000"></path>
                    </g>
                </g>
            </g>
        </g>
    </g>
</svg>